<?xml version="1.0" encoding="UTF-8" standalone="no"?>
<!DOCTYPE svg PUBLIC "-//W3C//DTD SVG 1.1//EN" "http://www.w3.org/Graphics/SVG/1.1/DTD/svg11.dtd">
<svg width="100%" height="100%" viewBox="0 0 251 246" version="1.1" xmlns="http://www.w3.org/2000/svg" xmlns:xlink="http://www.w3.org/1999/xlink" xml:space="preserve" xmlns:serif="http://www.serif.com/" style="fill-rule:evenodd;clip-rule:evenodd;stroke-linejoin:round;stroke-miterlimit:2;">
    <g transform="matrix(1,0,0,1,-25625.8,-9800.02)">
        <g transform="matrix(0.740281,0,0,1,7067.99,22741.6)">
            <g id="Planner" transform="matrix(7.49603,3.41994e-31,-9.23957e-32,5.54917,-12650,-15060.7)">
                <path d="M5072.5,381.993C5074.8,382.08 5076.78,384.024 5076.86,386.382C5076.99,398.083 5076.87,409.784 5076.87,421.485C5076.84,423.826 5074.94,425.894 5072.5,425.988C5060.45,426.14 5048.4,425.989 5036.35,425.989C5034.03,425.96 5031.96,424.016 5031.87,421.598C5031.74,409.898 5031.87,398.196 5031.87,386.495C5031.89,384.152 5033.81,382.084 5036.23,381.993C5048.32,381.84 5060.41,381.839 5072.5,381.993ZM5061.87,418.49C5062.69,418.49 5063.37,417.818 5063.37,416.99C5063.37,416.161 5062.69,415.49 5061.87,415.49C5061.04,415.49 5060.37,416.161 5060.37,416.99C5060.37,417.818 5061.04,418.49 5061.87,418.49ZM5047.87,418.49C5048.69,418.49 5049.37,417.818 5049.37,416.99C5049.37,416.161 5048.69,415.49 5047.87,415.49C5047.04,415.49 5046.37,416.161 5046.37,416.99C5046.37,417.818 5047.04,418.49 5047.87,418.49ZM5054.87,418.49C5055.69,418.49 5056.37,417.818 5056.37,416.99C5056.37,416.161 5055.69,415.49 5054.87,415.49C5054.04,415.49 5053.37,416.161 5053.37,416.99C5053.37,417.818 5054.04,418.49 5054.87,418.49ZM5040.87,418.49C5041.7,418.49 5042.37,417.818 5042.37,416.99C5042.37,416.161 5041.7,415.49 5040.87,415.49C5040.04,415.49 5039.37,416.161 5039.37,416.99C5039.37,417.818 5040.04,418.49 5040.87,418.49ZM5061.87,411.49C5063.8,411.49 5065.37,409.923 5065.37,407.99C5065.37,406.057 5063.8,404.49 5061.87,404.49C5059.93,404.49 5058.37,406.057 5058.37,407.99C5058.37,409.923 5059.93,411.49 5061.87,411.49ZM5054.87,409.49C5055.69,409.49 5056.37,408.818 5056.37,407.99C5056.37,407.162 5055.69,406.49 5054.87,406.49C5054.04,406.49 5053.37,407.162 5053.37,407.99C5053.37,408.818 5054.04,409.49 5054.87,409.49ZM5047.87,409.49C5048.69,409.49 5049.37,408.818 5049.37,407.99C5049.37,407.162 5048.69,406.49 5047.87,406.49C5047.04,406.49 5046.37,407.162 5046.37,407.99C5046.37,408.818 5047.04,409.49 5047.87,409.49ZM5040.87,409.49C5041.7,409.49 5042.37,408.818 5042.37,407.99C5042.37,407.162 5041.7,406.49 5040.87,406.49C5040.04,406.49 5039.37,407.162 5039.37,407.99C5039.37,408.818 5040.04,409.49 5040.87,409.49ZM5068.87,409.49C5069.69,409.49 5070.37,408.818 5070.37,407.99C5070.37,407.162 5069.69,406.49 5068.87,406.49C5068.04,406.49 5067.37,407.162 5067.37,407.99C5067.37,408.818 5068.04,409.49 5068.87,409.49ZM5068.87,400.49C5069.69,400.49 5070.37,399.819 5070.37,398.99C5070.37,398.162 5069.69,397.49 5068.87,397.49C5068.04,397.49 5067.37,398.162 5067.37,398.99C5067.37,399.819 5068.04,400.49 5068.87,400.49ZM5054.87,400.49C5055.69,400.49 5056.37,399.819 5056.37,398.99C5056.37,398.162 5055.69,397.49 5054.87,397.49C5054.04,397.49 5053.37,398.162 5053.37,398.99C5053.37,399.819 5054.04,400.49 5054.87,400.49ZM5061.87,400.49C5062.69,400.49 5063.37,399.819 5063.37,398.99C5063.37,398.162 5062.69,397.49 5061.87,397.49C5061.04,397.49 5060.37,398.162 5060.37,398.99C5060.37,399.819 5061.04,400.49 5061.87,400.49ZM5047.87,400.49C5048.69,400.49 5049.37,399.819 5049.37,398.99C5049.37,398.162 5048.69,397.49 5047.87,397.49C5047.04,397.49 5046.37,398.162 5046.37,398.99C5046.37,399.819 5047.04,400.49 5047.87,400.49ZM5075.92,392.491C5075.9,390.462 5075.89,388.434 5075.86,386.406C5075.8,384.62 5074.28,383.061 5072.47,382.992C5060.43,382.839 5048.39,382.991 5036.35,382.991C5034.53,383.014 5032.94,384.574 5032.87,386.406C5032.85,388.434 5032.83,390.462 5032.82,392.491L5075.92,392.491Z" style="fill:white;"/>
            </g>
        </g>
    </g>
</svg>
