<svg xmlns="http://www.w3.org/2000/svg" viewBox="0 0 1689.55 301.38"><defs><style>.cls-1{fill:#eb6b0f;fill-rule:evenodd;}.cls-2{fill:#2e2a5a;}</style></defs><g id="Ebene_2" data-name="Ebene 2"><g id="Ebene_1-2" data-name="Ebene 1"><path class="cls-1" d="M747,134.35,690.19,33.44a4.52,4.52,0,0,1,4.41-6.71L824.46,40.39a73.68,73.68,0,0,1,54,33c8.26,12.48,17.77,26.92,25.14,38.27,4.69,7.23,8.51,13.21,10.6,16.67l39.71,69a4.52,4.52,0,0,1-3.9,6.76l-113.85.63A84,84,0,0,1,762.59,162l-15.49-27.5,0,0,0-.05Z"/><path class="cls-2" d="M714,11.51l25.92,54.33c32.16,0,63.75.34,94.61-.64,18.91-.59,37.55-1.69,55.88-3.7a71,71,0,0,0-44.39-27Zm182.44,59.3c-20.18,2.4-40.72,3.66-61.59,4.32-29.46.93-59.56.65-90.19.64l18.74,39.28c34.52,0,65.79.39,95.47-1a482.78,482.78,0,0,0,58.69-5.88C911,96.55,903.28,82.93,896.39,70.81Zm138.15,77.26,10.27,5.09a5.23,5.23,0,1,0,4.64-9.37l-10.27-5.09a5.23,5.23,0,1,0-4.64,9.37ZM922.63,117.4A482.86,482.86,0,0,1,859.27,124c-28.46,1.3-58.37,1-91.17,1l11.59,24.29a81.64,81.64,0,0,0,9.23,15c58.61,0,98.56,1.25,139.09-7,4.44-.91,8.89-1.93,13.37-3.09L930.81,132.5C929.12,129.21,926.22,123.89,922.63,117.4Zm157.15,48.83-20.91,3.36,15.33,10.86a36.55,36.55,0,0,1,4.94,3.51l4.4,3.11,3-5.36a4.85,4.85,0,0,0-.12-4.92Zm-133.95-3c-5.31,1.41-10.57,2.64-15.83,3.71-39,8-77.42,7.29-132,7.24A82.28,82.28,0,0,0,848.93,196l116.48,7.26ZM412.77,143.7c25,0,39.16,10.51,39.16,33.38,0,10.25-3.94,19.44-12.35,24.44-3.15,1.84-8.41,3.15-21.29,3.15-7.35,0-13.4-.26-16.29-.53a1.68,1.68,0,0,1-1.31-1.31c0-18.66.52-46.51.79-54.13,0-1.32,1-3.68,2.1-4.21A52.57,52.57,0,0,1,412.77,143.7Zm-355-.26c28.12,0,40.73,14.45,40.73,39.16,0,17.08-8.67,26.54-17.08,30.48-5,2.1-16.29,2.63-33.9,2.1a1.4,1.4,0,0,1-1.31-1.31c0-20.5,0-56.24.52-65.17a6.2,6.2,0,0,1,1.84-3.95C51.18,143.7,55.65,143.44,57.75,143.44Zm516.9,18.66c4.21,11.3,14.19,40.47,19.45,56.76a1.45,1.45,0,0,1-.79,2.1c-2.63.27-11.3.27-17.61.27-10,0-18.39,0-21-.27-.79-.26-1-.79-1-1.84,4.47-13.92,15.24-43.62,19.71-56.76C573.6,161.83,574.39,162.1,574.65,162.1Zm497-19.8c-5.27-2.88-26.31-10.92-41.2-19.13a74,74,0,0,1-12.22-8.07,18.61,18.61,0,0,1-5-6.27,5,5,0,0,1,9.13-3.92,8.54,8.54,0,0,0,2.38,2.68,63.4,63.4,0,0,0,10.51,6.88c14.88,8.2,35.89,16.23,41.17,19.12a14.75,14.75,0,0,1,4.56,3.85,15,15,0,0,1,2.7,5.32c.47,1.74,1,4.34,1.57,7,.74,3.67,1.42,7.48,1.73,9.23l7.89,12.5a14.7,14.7,0,0,1,.37,15.09L1082.57,209a5,5,0,0,1-8.66-4.88l4.73-8.38-9.83-7a26.52,26.52,0,0,0-3.63-1.74,25.67,25.67,0,0,0-8.65-1.86c-9.31-.16-16.53,1.22-22,4.9s-9.13,9.89-11.48,18.63l-7.44,25.49a5,5,0,0,0,2.59,5.86l29.24,13.62a5,5,0,0,1-4.07,9.06L1013.85,249a14.92,14.92,0,0,1-7.77-17.57l7.41-25.38c3.1-11.46,8.18-19.25,15.49-24.19,5.52-3.73,12.41-5.85,21-6.44l0,0a8.32,8.32,0,0,1-3.3-8.67,8.32,8.32,0,0,1,6.79-6.33l23-3.7c-.28-1.54-.61-3.28-1-5-.48-2.41-1-4.76-1.41-6.33a5.07,5.07,0,0,0-2.45-3.09ZM824.2,262.88,791,260.07l-52.69,17.54,6.62,7.45a3.29,3.29,0,0,0,3.43,1ZM427.75,288.24c-6,0-15.76-.79-20.23-3.68-3.15-1.84-5.52-6.57-6-10-.79-10.77-.79-42.83-.79-59.39,0-.52.79-1.05,1.31-1.05,1.84-.53,8.67-.53,12.61-.53,29.7,0,47.57,13.67,47.57,38.63C462.18,276.67,448.78,288.24,427.75,288.24ZM1412,289.81c-13.4,0-23.65-3.15-32.85-8.93-23.12-15-33.37-44.94-33.37-72.53,0-26.81,8.93-50.46,28.11-61.76a47.76,47.76,0,0,1,23.66-5.78A58.79,58.79,0,0,1,1432,151.32c20.76,14.46,30.22,41.79,30.22,70.17,0,24.17-5.78,46-22.07,59.13C1433.33,286.4,1423.08,289.81,1412,289.81Zm-1154,0c-13.4,0-23.65-3.15-32.85-8.93-23.12-15-33.37-44.94-33.37-72.53,0-26.81,8.94-50.46,28.12-61.76a47.72,47.72,0,0,1,23.65-5.78A58.79,58.79,0,0,1,278,151.32c20.77,14.46,30.22,41.79,30.22,70.17,0,24.17-5.78,46-22.07,59.13C279.28,286.4,269,289.81,258,289.81ZM770.72,153.55,700.84,7.11a5,5,0,0,1,5.33-7l141.5,24.66A81.07,81.07,0,0,1,904.52,65c8.13,14.31,17.5,30.86,24.74,43.87,4.6,8.28,8.35,15.13,10.38,19.08l11.48,23.48a346.55,346.55,0,0,0,54.88-22c-6.39-2.45-14.28-5.41-20.55-9-5.93-3.36-10.47-7.37-12.28-11.61a5,5,0,0,1,9.12-3.92,10.55,10.55,0,0,0,3.28,3.73,46.12,46.12,0,0,0,8.62,5.16c9.66,4.69,21.24,8.26,26,10.84l.78.53.69.69.43.62.12.23a4.83,4.83,0,0,1,.54,1.83v1a5.08,5.08,0,0,1-.57,1.82l-.54.79-.69.68-.62.43-.22.12c-23.85,12.41-44.69,21-64.53,27.07l22.55,46.14a5,5,0,0,1-4.78,7.13l-108-6.73L727.82,255.13a5,5,0,0,0-2.06,1.36,5.06,5.06,0,0,0-1.21,4.64,5.11,5.11,0,0,0,1.14,2.2l5.5,6.19,57.19-19a4.94,4.94,0,0,1,2.43-.41l248,21a5,5,0,1,1-.84,9.9L850.83,265.13l-99.52,30.4a13.2,13.2,0,0,1-13.77-3.87l-19.28-21.74a15,15,0,0,1,6.28-24.16l116.07-40.62a92.33,92.33,0,0,1-69.89-51.59ZM492.4,289.81c-1,1.05-1,6.57,0,7.62,5,0,13.14-.78,28.12-.78,14.71,0,28.12.78,33.64.78.78-1.05,1.31-6.57.52-7.62a94.88,94.88,0,0,1-12.61-2.1c-8.15-2.1-8.67-5-8.41-9.46.52-6.31,8.93-28.38,14.19-42.57.26-.79,1.57-2.37,2.63-2.37,3.15-.26,5,0,21.81,0,11.82,0,21-.26,24.7,0a3.91,3.91,0,0,1,2.36,1.84c4.74,11.83,12.62,33.9,15.77,45.2.79,2.37.53,5-2.89,6.57a81.76,81.76,0,0,1-14.45,2.89c-1,1.05-.53,6.57.26,7.62,5.52-.26,21.55-.78,34.43-.78,11.82,0,25.22.52,32.06.78.79-1.05,1.57-6.83.52-7.62-18.92-2.36-20.76-3.68-28.38-21.28-9.2-21.81-38.37-105.12-43.62-120.1-1.84-5-3.15-9.72-4.21-13.66-.79,0-3.41.26-8.67.26-4.47,0-7.62-.26-8.67-.26-.53,3.68-2.37,9.46-4.47,15-5.78,16.81-30.48,83.83-43.88,115.62C514.47,285.61,511.32,287.45,492.4,289.81ZM.72,141.6c5.26.53,10.25,1.31,14.19,2.1,6.57,1.58,8.41,4.73,8.68,12.09.26,8.15.26,34.43.26,61.23,0,14.45-.26,50.19-.53,56.24-.52,10-2.63,13.14-8.93,14.45C11,288.5,6.77,289,1,289.81c-1.32,1.05-1.32,6.57,0,7.62,5,0,16.29-.78,33.37-.78,17.34,0,30,.78,35,.78,1.31-1.05,1.84-6.57.53-7.62-6.05-.79-10.78-1.57-14.72-2.36-6-1.32-7.88-3.68-8.41-12.62-.52-8.67-.52-33.11-.52-47.56,0-.26.52-1.58,1.05-1.58,3.68,0,15-.26,18.65.27a8.53,8.53,0,0,1,6.57,3.94c10,14.19,26,40.47,36,52.29,4.46,5.52,8.67,8.67,12.61,10.51,9.72,4.73,30.75,5.52,42.05,5,1.57-.53,2.1-6.57,1.57-7.36-15.77-2.1-19.44-3.42-30.22-14.45-12.87-13.14-33.63-42-42.83-56.77a1.74,1.74,0,0,1,.52-1.84c15.77-7.09,30-20.23,30-42.31s-16.29-40.47-47-40.47c-10.51,0-24.17.53-43.62.53-8.15,0-23.91-.79-30.22-.79C.2,134.77-.33,140.55.72,141.6Zm1504.87,0c10.25,1.05,16,2.37,21,5.78,5.78,3.15,7.09,8.94,7.09,12.88-.53,55.18-1.31,98-2.36,111.68-.53,10.25-3.95,13.67-10,15.51a79.66,79.66,0,0,1-13.93,2.36c-.79.79-.79,6.84,0,7.62,5.52,0,15.51-.78,31.54-.78,14.71,0,26.54.78,32.84.78.79-1.05,1.58-6.57.53-7.62-6.57-.79-11.83-1.31-15.77-2.62-6.83-1.58-10.25-5.26-10.77-15.77-.79-14.72-.79-76.21-.26-103.28,0-.26.78-.52,1-.26,15.76,19.71,88,110.11,102,130.08,3.15-.26,15.24-.26,18.13,0-.26-8.67-.52-23.91-.52-36,.78-49.67.52-83.31,2.1-103.54.52-7.1,2.1-11.83,8.93-14.19a85.87,85.87,0,0,1,11.57-2.63c1-1,1-6.57,0-7.36-3.42,0-18.93.79-27.86.79-16,0-28.12-.79-35-.79-.79.79-1,6.31,0,7.36a114.2,114.2,0,0,1,17.61,3.15c7.88,2.11,9.46,6.31,10,13.93,1.32,18.92,1,68.06,1,104.07a.79.79,0,0,1-1,.26c-12.61-14.72-66.48-80.41-93.29-114-6.83-8.67-8.41-11.56-9.46-14.19-2.1.26-6.57.26-11.82.26-13.14,0-26.28-.79-32.85-.79C1505.07,135,1504.8,140.81,1505.59,141.6ZM356,141.6c5,.53,11.57,1.31,15.25,2.37,4.46,1.31,6.83,3.67,7.09,11,.53,9.73.26,26.81.26,59.66,0,28.11,0,51.24-.52,59.65-.79,9.46-2.63,11.82-8.41,13.4-4.47,1.05-12.09,1.58-16.82,2.1-1.31.79-1.05,6.84.26,7.62,17.35-.52,48.09.79,59.92.79,13.93,0,28.64-1.31,40.73-6.57,20-8.67,32.85-23.39,32.85-45.2,0-23.12-16.56-35.74-37.05-40.47a.55.55,0,0,1,0-1c15.24-6.3,25.49-18.66,25.49-33.63,0-31-28.39-36.8-46.26-36.8-17.08,0-27.06.53-42.3.53s-24.18-.79-30.22-.79C355.23,134.77,355,140.81,356,141.6Zm701.64,127.83.64-23a14.75,14.75,0,0,1,21.38-12.75l-4.48,8.87a4.84,4.84,0,0,0-4.63.16,4.83,4.83,0,0,0-2.34,4l-.31,11.21,2.07-2.32a14.74,14.74,0,0,1,20.1-1.78,14.54,14.54,0,0,1,4.46,5.82l-9.14,3.89a4.72,4.72,0,0,0-1.45-1.9,4.82,4.82,0,0,0-4.57-.75,4.92,4.92,0,0,0-2,1.33l-22.55,25.28a2.4,2.4,0,0,0-.58,1.3,2.31,2.31,0,0,0,.27,1.4,2.35,2.35,0,0,0,2.43,1.21h0l1.48,9.83h0a12.3,12.3,0,0,1-11-20.35Zm224.57-92.88c.26,1.31,7.1.53,8.15-.52.26-11.83,2.63-31.28,4.2-40.47-11.82-.79-29.43-5.26-51.77-5.26s-39.41,4.47-53.34,12.09c-28.91,15.5-41.79,43.88-41.79,72.27,0,54.66,32.59,86.72,91.19,86.72a138.19,138.19,0,0,0,40.21-6.57c6-3.68,17.34-24.18,20-35.48-.53-1.84-5-4.2-6.31-4.2-6.83,11.56-13.14,20.49-19.71,25.75-6.57,6-17.6,8.93-28.9,8.93-46.78,0-70.17-35.47-70.17-77.52,0-44.41,21.81-72.53,59.92-72.53,12.61,0,23.91,1.58,32.58,5.78C1276.18,150.27,1279.59,155.53,1282.22,176.55Zm119.83,124.83c26.28,0,52.82-11.83,69.12-34.43,10.77-15,16-31.53,16-54.66,0-42.83-27.07-82-80.68-82-27.07,0-55.71,13.4-70.16,33.37a84.12,84.12,0,0,0-16.3,50.72c0,23.65,6.84,45.73,22.6,63.07C1356.33,292.18,1376.83,301.38,1402.05,301.38Zm-1154,0c26.28,0,52.82-11.83,69.11-34.43,10.77-15,16-31.53,16-54.66,0-42.83-27.07-82-80.68-82-27.06,0-55.71,13.4-70.16,33.37A84.17,84.17,0,0,0,166,214.39c0,23.65,6.83,45.73,22.6,63.07C202.28,292.18,222.78,301.38,248,301.38Z"/></g></g></svg>